# xmcd
#
# Track frame offsets:
#	150
#	15075
#	45975
#	63375
#	93600
#	167475
#
# Disc length: 2557 seconds
# Revision: 0
# Processed by: cddbd v1.5.2PL0 Copyright (c) Steve Scherf et al.
# Submitted via: dBpowerAMP V12.0
#
DISCID=3909fb06
DTITLE=Jozef Van Wissem - The Joy That Never Ends
DYEAR=2013
DGENRE=Folk
TTITLE0=The Joy That Never Ends
TTITLE1=His Is the Ecstasy
TTITLE2=Concerning the Beautiful Human Form After Death
TTITLE3=Concerning the Precise Nature of Truth
TTITLE4=The Hearts of the Daughters Are Returned to Their Mothers
TTITLE5=The Great Joy
EXTD=
EXTT0=
EXTT1=
EXTT2=
EXTT3=
EXTT4=
EXTT5=
PLAYORDER=
